<?xml version="1.0" encoding="UTF-8"?> <svg xmlns="http://www.w3.org/2000/svg" width="408" height="101" viewBox="0 0 408 101" fill="none"><path d="M105.752 49.6614H122.213C119.936 63.4464 112.43 70.1354 99.694 74.5866C95.0345 76.2165 90.1123 76.9615 85.1753 76.9615C75.1248 76.9615 65.0861 76.9615 55.0345 76.9615C54.0136 76.9615 52.9922 76.9298 51.9743 76.8644L35.1305 87.6716C33.6666 88.6922 31.6175 87.7582 32.0057 85.5949L34.2525 71.9006C34.2525 71.9006 31.515 70.0635 31.5147 70.0635C24.1805 64.9433 19.6755 59.7077 17.9995 49.6618H33.9898C35.9527 59.6325 44.7905 67.2142 55.3146 67.2142H84.4276C94.9517 67.2142 103.789 59.6325 105.752 49.6618L105.752 49.6614ZM122.205 41.3002C118.991 22.7245 103.049 14 85.1753 14H70.1036H70.1062H55.0345C37.1619 14 21.2193 22.7248 18.0059 41.3002H33.9894C35.9527 31.3298 44.7905 23.7477 55.3142 23.7477H84.4273C94.951 23.7477 103.788 31.3298 105.751 41.3002H122.205H122.205Z" fill="#219BE3"></path><path fill-rule="evenodd" clip-rule="evenodd" d="M387.424 63.8994H394.094V33.8731H387.424V45.5032H365.603V33.8731H358.933V63.8994H365.603V50.5532H387.424V63.8994ZM172.378 63.8079C176.616 53.8656 180.855 43.9232 185.093 33.9801H177.6L168.004 57.9407L167.469 58.036C166.157 58.2681 164.439 58.2529 163.123 58.0382L162.576 57.9486L162.371 57.4346C159.255 49.6162 156.138 41.7978 153.022 33.9801H145.535L158.372 63.8166C163.032 64.5284 167.715 64.4577 172.377 63.8079H172.378ZM215.911 64.0064H224.14L213.838 53.0964L215.648 52.7932C215.98 52.7376 216.311 52.6775 216.642 52.6129C220.686 51.1973 222.966 48.1333 222.966 43.8053C222.966 36.5501 217.734 33.9801 211.17 33.9801H190.509V64.0064H197.179C197.179 55.8958 197.179 47.7855 197.179 39.6746V38.6959H209.987C213.333 38.6959 216.2 39.96 216.2 43.7577C216.2 47.5795 213.314 48.7233 209.987 48.7233H206.806C205.329 48.7233 204.621 50.5551 205.545 51.663C208.889 55.8693 212.422 59.9206 215.91 64.0067L215.911 64.0064ZM275.723 38.9821V33.9801H241.892V38.9821H255.461V64.0064H262.13V38.9821H275.723ZM282.083 64.003L313.224 63.9028V59.0448L288.991 59.1518V58.169C288.991 52.052 288.991 45.9341 288.991 39.8171V38.8385H312.498V33.9797H282.083V64.0026V64.003ZM352.332 62.0306V56.552C347.852 58.8528 343.953 59.8511 338.629 59.8511C331.384 59.8511 323.685 57.5759 323.685 48.9105C323.685 40.2397 331.36 37.9218 338.629 37.9218C343.867 37.9218 347.886 39.0248 352.332 41.2799V35.7899C347.706 33.92 343.327 33.0635 338.28 33.0635C327.979 33.0635 316.92 36.8192 316.92 48.9108C316.92 61.3774 327.681 64.7578 338.28 64.7578C343.315 64.7578 347.714 63.8986 352.332 62.0313V62.0306Z" fill="#434242"></path><path d="M62.2432 59.0087C61.0896 58.5857 60.4973 57.3077 60.9203 56.1545C61.3429 55.0012 62.6209 54.4089 63.7741 54.8319C65.277 55.3891 67.5227 55.6646 69.8779 55.6646C72.2922 55.6646 74.7435 55.3724 76.5737 54.7967C77.7466 54.432 78.9933 55.0863 79.358 56.2592C79.7232 57.4317 79.0688 58.6784 77.8959 59.0435C75.6253 59.7575 72.6955 60.1196 69.8776 60.1196C67.0456 60.1196 64.2481 59.7522 62.2425 59.0087H62.2432Z" fill="#434242"></path><path d="M91.1035 44.3713C91.1035 41.3919 88.7667 38.9766 85.8841 38.9766C83.0016 38.9766 80.6648 41.3919 80.6648 44.3713V46.8736C80.6648 49.853 83.0016 52.2683 85.8841 52.2683C88.7667 52.2683 91.1035 49.853 91.1035 46.8736V44.3713Z" fill="#434242"></path><path d="M59.9855 44.3713C59.9855 41.3919 57.6488 38.9766 54.7662 38.9766C51.8836 38.9766 49.5469 41.3919 49.5469 44.3713V46.8736C49.5469 49.853 51.8836 52.2683 54.7662 52.2683C57.6488 52.2683 59.9855 49.853 59.9855 46.8736V44.3713Z" fill="#434242"></path><path d="M304.705 46.0879H296.045C294.557 46.0879 293.35 47.1756 293.35 48.5173V48.5176C293.35 49.8593 294.557 50.947 296.045 50.947H304.705C306.194 50.947 307.4 49.8593 307.4 48.5176V48.5173C307.4 47.1756 306.194 46.0879 304.705 46.0879Z" fill="#434242"></path></svg> 