<?xml version="1.0" encoding="UTF-8"?> <svg xmlns="http://www.w3.org/2000/svg" width="32" height="32" viewBox="0 0 32 32" fill="none"><circle cx="16" cy="16" r="16" fill="#616162"></circle><path fill-rule="evenodd" clip-rule="evenodd" d="M9.82278 17.6832C9.85882 17.6942 9.89557 17.7029 9.93278 17.709C10.1686 18.2645 10.403 18.8207 10.6361 19.3773C11.0553 20.379 11.4778 21.4107 11.5703 21.7073C11.6861 22.0723 11.8078 22.3207 11.9411 22.4907C12.0103 22.5773 12.0894 22.654 12.1828 22.7123C12.2318 22.742 12.2837 22.7666 12.3378 22.7857C12.6044 22.8857 12.8478 22.844 13.0003 22.7932C13.0898 22.7627 13.175 22.7207 13.2536 22.6682L13.2578 22.6665L15.6128 21.1982L18.3336 23.2832C18.3736 23.3137 18.4169 23.3395 18.4636 23.3607C18.7903 23.5023 19.1069 23.5523 19.4053 23.5123C19.7019 23.4707 19.9378 23.3465 20.1136 23.2057C20.3153 23.0427 20.4763 22.835 20.5836 22.599L20.5911 22.5807L20.5936 22.574L20.5953 22.5707V22.569L20.5961 22.5682C20.6098 22.532 20.6209 22.495 20.6294 22.4573L23.1128 9.93649C23.1196 9.89628 23.1235 9.85561 23.1244 9.81483C23.1244 9.44816 22.9861 9.09899 22.6619 8.88816C22.3836 8.70733 22.0744 8.69899 21.8786 8.71399C21.6686 8.73066 21.4736 8.78233 21.3428 8.82399C21.2697 8.8476 21.1974 8.87373 21.1261 8.90233L21.1169 8.90649L7.18862 14.3698L7.18695 14.3707C7.13972 14.3877 7.09328 14.4069 7.04778 14.4282C6.93729 14.4777 6.83134 14.5368 6.73111 14.6048C6.54195 14.734 6.10611 15.089 6.18028 15.6757C6.23861 16.1423 6.55861 16.4298 6.75445 16.5682C6.86111 16.644 6.96278 16.6982 7.03778 16.734C7.07112 16.7507 7.14278 16.779 7.17361 16.7923L7.18195 16.7948L9.82278 17.6832ZM21.6044 10.0565H21.6028L21.5811 10.0657L7.63612 15.5365L7.61445 15.5448L7.60612 15.5473C7.58058 15.5572 7.55555 15.5683 7.53112 15.5807C7.55442 15.5937 7.57833 15.6057 7.60278 15.6165L10.2211 16.4982C10.2673 16.5153 10.312 16.5365 10.3544 16.5615L19.0019 11.499L19.0103 11.4948C19.044 11.4747 19.0785 11.4558 19.1136 11.4382C19.1736 11.4073 19.2694 11.3623 19.3778 11.329C19.4528 11.3057 19.6753 11.2398 19.9153 11.3173C20.0428 11.3571 20.1564 11.4321 20.2431 11.5337C20.3298 11.6353 20.386 11.7593 20.4053 11.8915C20.4363 12.0071 20.4372 12.1288 20.4078 12.2448C20.3494 12.474 20.1894 12.6523 20.0436 12.789C19.9186 12.9057 18.2969 14.469 16.6978 16.0123L14.5203 18.1123L14.1328 18.4873L19.0261 22.239C19.0922 22.2666 19.1639 22.278 19.2353 22.2723C19.2712 22.2674 19.305 22.2524 19.3328 22.229C19.3665 22.2004 19.3955 22.1667 19.4186 22.129L19.4203 22.1282L21.8286 9.98399C21.7529 10.0026 21.6785 10.0266 21.6061 10.0557L21.6044 10.0565ZM14.5536 20.3848L13.5769 19.6365L13.3403 21.1407L14.5536 20.3848ZM12.6811 18.1515L13.6519 17.214L15.8294 15.1123L16.6403 14.3307L11.2069 17.5115L11.2361 17.5798C11.5788 18.3893 11.9177 19.2005 12.2528 20.0132L12.4886 18.5132C12.5101 18.3741 12.578 18.2472 12.6811 18.1515Z" fill="white"></path></svg> 