<?xml version="1.0" encoding="UTF-8"?> <svg xmlns="http://www.w3.org/2000/svg" width="32" height="32" viewBox="0 0 32 32" fill="none"><circle cx="16" cy="16" r="16" fill="#616162"></circle><path d="M21.8737 10.092C21.1096 9.32046 20.1996 8.70868 19.1966 8.29234C18.1937 7.876 17.1179 7.66344 16.032 7.66704C11.482 7.66704 7.7737 11.3754 7.7737 15.9254C7.7737 17.3837 8.15703 18.8004 8.8737 20.0504L7.70703 24.3337L12.082 23.1837C13.2904 23.842 14.6487 24.192 16.032 24.192C20.582 24.192 24.2904 20.4837 24.2904 15.9337C24.2904 13.7254 23.432 11.6504 21.8737 10.092ZM16.032 22.792C14.7987 22.792 13.5904 22.4587 12.532 21.8337L12.282 21.6837L9.68203 22.367L10.3737 19.8337L10.207 19.5754C9.52165 18.4813 9.1578 17.2164 9.15703 15.9254C9.15703 12.142 12.2404 9.0587 16.0237 9.0587C17.857 9.0587 19.582 9.77537 20.8737 11.0754C21.5134 11.7119 22.0203 12.4692 22.3651 13.3031C22.7098 14.1371 22.8855 15.0313 22.882 15.9337C22.8987 19.717 19.8154 22.792 16.032 22.792ZM19.7987 17.6587C19.5904 17.5587 18.5737 17.0587 18.3904 16.9837C18.1987 16.917 18.0654 16.8837 17.9237 17.0837C17.782 17.292 17.3904 17.7587 17.2737 17.892C17.157 18.0337 17.032 18.0504 16.8237 17.942C16.6154 17.842 15.9487 17.617 15.1654 16.917C14.5487 16.367 14.1404 15.692 14.0154 15.4837C13.8987 15.2754 13.9987 15.167 14.107 15.0587C14.1987 14.967 14.3154 14.817 14.4154 14.7004C14.5154 14.5837 14.557 14.492 14.6237 14.3587C14.6904 14.217 14.657 14.1004 14.607 14.0004C14.557 13.9004 14.1404 12.8837 13.9737 12.467C13.807 12.067 13.632 12.117 13.507 12.1087H13.107C12.9654 12.1087 12.7487 12.1587 12.557 12.367C12.3737 12.5754 11.8404 13.0754 11.8404 14.092C11.8404 15.1087 12.582 16.092 12.682 16.2254C12.782 16.367 14.1404 18.4504 16.207 19.342C16.6987 19.5587 17.082 19.6837 17.382 19.7754C17.8737 19.9337 18.3237 19.9087 18.682 19.8587C19.082 19.8004 19.907 19.3587 20.0737 18.8754C20.2487 18.392 20.2487 17.9837 20.1904 17.892C20.132 17.8004 20.007 17.7587 19.7987 17.6587Z" fill="white"></path></svg> 