<?xml version="1.0" encoding="UTF-8"?> <svg xmlns="http://www.w3.org/2000/svg" width="2000" height="700" viewBox="0 0 2000 700" fill="none"><g clip-path="url(#clip0_2064_73)"><rect width="2000" height="700" fill="#4C4C4C"></rect><g clip-path="url(#clip1_2064_73)"><path d="M384.847 498.161C371.584 485.246 358.669 472.329 346.105 459.413C339.822 452.431 336.332 443.355 336.332 433.581C336.332 423.107 340.52 413.333 347.85 406.002L384.847 368.999L421.843 406.002C429.173 413.333 433.36 423.107 433.36 433.581C433.36 443.355 429.87 452.431 423.239 459.762C410.326 472.679 397.411 485.594 384.847 498.161ZM384.847 482.802L405.788 461.857L413.466 454.177L414.165 453.478C420.098 447.544 422.89 439.515 422.192 431.137C421.494 424.155 418.353 417.871 413.466 412.984L387.987 387.5V401.465L418.004 431.486C419.051 432.533 419.051 434.628 417.655 435.674C416.608 436.373 415.212 436.024 414.165 435.326L387.987 409.144V428.343L407.882 448.242C408.929 449.29 408.929 451.384 407.533 452.431C406.485 453.13 405.089 452.78 404.042 452.082L387.987 436.024V459.413C387.987 461.158 386.591 462.904 384.847 462.904C382.752 462.904 381.356 461.508 381.356 459.413V435.674L365.301 452.431C364.254 453.478 362.858 453.478 361.811 452.78C360.415 451.733 360.066 449.639 361.462 448.591L381.356 428.693V409.493L355.18 435.326C354.133 436.373 352.737 436.373 351.689 435.674C350.293 434.628 349.944 432.533 351.34 431.486L381.356 401.465V387.5L355.529 413.333C350.293 418.57 347.152 425.901 347.152 433.231C347.152 440.911 349.944 447.892 355.529 453.13L356.226 453.827L363.905 461.508L384.847 482.802ZM510.146 235.647C507.004 235.647 504.561 234.948 501.769 233.901C499.326 232.854 497.232 231.457 495.487 229.712C493.742 227.967 492.345 225.872 491.299 223.428C490.252 220.985 489.902 218.89 489.902 216.447C489.902 214.003 490.252 211.559 491.299 209.116C492.345 206.672 493.742 204.927 495.487 203.181C497.232 201.436 499.326 200.039 502.118 198.992C504.561 197.945 507.354 197.596 510.146 197.596C513.288 197.596 516.08 198.294 518.523 199.341C520.966 200.388 523.059 201.785 524.805 203.53C526.55 205.276 527.946 207.37 528.993 209.814C530.04 212.257 530.389 214.352 530.389 216.796C530.389 219.239 530.04 221.683 528.993 223.777C527.946 226.221 526.55 227.967 524.805 229.712C523.059 231.457 520.966 232.854 518.174 233.901C515.731 235.297 512.938 235.647 510.146 235.647ZM501.421 216.796C501.421 217.843 501.769 218.89 502.118 220.286C502.468 221.334 503.165 222.381 503.864 223.079C504.561 223.777 505.608 224.476 506.656 225.174C507.354 225.523 508.75 225.872 510.146 225.872C511.542 225.872 512.938 225.523 513.985 225.174C515.032 224.476 516.08 223.777 516.777 223.079C517.476 222.032 518.174 221.334 518.523 220.286C518.872 219.239 519.22 218.192 519.22 216.796C519.22 215.748 518.872 214.701 518.523 213.305C518.174 212.257 517.476 211.21 516.777 210.512C516.08 209.814 515.032 209.116 513.985 208.418C512.938 208.068 511.542 207.719 510.146 207.719C508.75 207.719 507.354 208.068 506.307 208.418C505.26 209.116 504.212 209.465 503.515 210.512C502.817 211.21 502.118 212.257 501.769 213.305C501.421 214.352 501.421 215.748 501.421 216.796ZM799.138 489.434C806.118 489.434 811.354 485.246 811.354 478.612C811.354 464.3 790.063 467.791 790.063 456.969C790.063 452.431 793.205 449.639 798.44 449.639C804.025 449.639 807.165 452.78 807.165 458.017H810.656C810.656 451.035 805.769 446.496 798.44 446.496C791.459 446.496 786.573 450.686 786.573 456.969C786.573 470.933 807.864 467.442 807.864 478.612C807.864 483.5 804.373 486.293 799.138 486.293C793.205 486.293 789.714 483.151 789.366 477.216H785.875C785.875 484.547 791.11 489.434 799.138 489.434ZM864.754 446.496C859.17 446.496 854.982 449.987 853.237 454.875C851.841 449.29 848.35 446.496 843.464 446.496C838.578 446.496 835.087 449.29 832.993 453.478L832.644 447.544H829.852V488.737H833.343V463.602C833.343 455.223 837.531 449.987 843.115 449.987C848.002 449.987 850.794 453.827 850.794 462.554V488.737H854.284V463.602C854.284 455.223 858.472 449.987 864.406 449.987C869.292 449.987 872.084 453.827 872.084 462.554V488.737H875.574V462.206C875.225 451.384 871.036 446.496 864.754 446.496ZM907.335 446.496C900.006 446.496 895.12 451.035 894.771 457.667H898.261C898.261 452.78 902.1 449.639 907.335 449.639C912.919 449.639 916.061 453.13 916.061 459.413V464.649H907.684C898.61 464.649 893.724 469.188 893.724 476.867C893.724 484.897 898.61 489.434 905.94 489.434C910.826 489.434 913.966 487.341 916.061 484.198L916.41 488.737H919.551V459.413C919.203 451.384 914.665 446.496 907.335 446.496ZM906.288 485.943C900.703 485.943 896.864 482.802 896.864 476.867C896.864 470.933 900.355 467.791 907.335 467.791H916.061V475.82C915.712 482.453 912.222 485.943 906.288 485.943ZM954.453 446.496C949.567 446.496 945.728 449.29 943.285 453.478V452.431L942.936 447.195H940.144V488.387H943.634V463.253C943.634 454.875 947.822 449.639 954.104 449.639C955.85 449.639 957.595 449.987 958.991 450.336V446.846C957.595 446.496 956.199 446.496 954.453 446.496ZM988.658 485.594C983.423 485.594 980.979 482.802 980.979 477.216V450.336H990.054V447.195H980.979V437.42H977.489V447.195H971.556V450.336H977.489V477.216C977.489 484.897 981.328 488.737 988.658 488.737H990.752V485.594H988.658ZM1041.71 446.496C1036.82 446.496 1032.98 449.29 1030.54 453.478V452.431L1030.19 447.195H1027.4V488.387H1030.89V463.253C1030.89 454.875 1035.08 449.639 1041.36 449.639C1043.11 449.639 1044.85 449.987 1046.25 450.336V446.846C1044.85 446.496 1043.45 446.496 1041.71 446.496ZM1083.94 476.169C1083.24 482.453 1080.1 485.943 1074.17 485.943C1068.24 485.943 1064.74 482.103 1064.74 475.122V469.536H1087.43V460.461C1087.43 451.733 1082.2 446.496 1074.17 446.496C1066.14 446.496 1061.25 451.733 1061.25 460.461V475.471C1061.25 484.198 1066.14 489.434 1073.82 489.434C1081.85 489.434 1086.73 484.547 1087.08 476.169H1083.94ZM1074.17 449.639C1080.1 449.639 1083.94 453.478 1083.94 460.461V466.395H1064.74V460.461C1064.4 453.478 1068.24 449.639 1074.17 449.639ZM1120.24 433.581H1121.99V430.438H1120.24C1112.91 430.438 1108.72 434.977 1108.72 443.005V447.195H1102.79V450.336H1108.72V488.387H1112.21V450.336H1121.29V447.195H1112.21V443.005C1112.21 436.722 1115 433.581 1120.24 433.581ZM1153.05 446.496C1148.16 446.496 1144.32 449.29 1141.88 453.478V452.431L1141.53 447.195H1138.74V488.387H1142.23V463.253C1142.23 454.875 1146.42 449.639 1152.7 449.639C1154.45 449.639 1156.19 449.987 1157.59 450.336V446.846C1156.19 446.496 1154.79 446.496 1153.05 446.496ZM1175.74 439.515C1177.48 439.515 1178.88 438.468 1178.88 436.373C1178.88 434.628 1177.83 433.231 1175.74 433.231C1173.99 433.231 1172.59 434.628 1172.59 436.373C1172.59 438.118 1173.64 439.515 1175.74 439.515ZM1173.99 488.387H1177.48V447.195H1173.99V488.387ZM1220.06 447.195L1219.71 452.082C1217.62 448.591 1214.13 446.496 1209.94 446.496C1202.61 446.496 1197.37 451.733 1197.37 461.158V473.376C1197.37 482.103 1202.61 487.341 1210.29 487.341C1214.13 487.341 1217.62 485.594 1219.71 482.453V490.83C1219.71 496.765 1216.57 499.907 1210.99 499.907C1205.4 499.907 1201.91 496.765 1201.56 491.529H1198.42C1198.77 498.511 1203.66 503.049 1211.34 503.049C1218.66 503.049 1223.55 498.161 1223.55 490.482V447.195H1220.06ZM1210.29 484.198C1204.35 484.198 1200.52 480.358 1200.52 473.376V460.809C1200.52 453.13 1204.7 449.29 1210.29 449.29C1215.17 449.29 1219.36 453.13 1219.36 459.762V473.726C1219.36 480.358 1215.87 484.198 1210.29 484.198ZM1265.43 476.169C1264.74 482.453 1261.59 485.943 1255.66 485.943C1249.73 485.943 1246.24 482.103 1246.24 475.122V469.536H1268.92V460.461C1268.92 451.733 1263.69 446.496 1255.66 446.496C1247.63 446.496 1242.75 451.733 1242.75 460.461V475.471C1242.75 484.198 1247.63 489.434 1255.31 489.434C1263.34 489.434 1268.23 484.547 1268.58 476.169H1265.43ZM1255.66 449.639C1261.59 449.639 1265.43 453.478 1265.43 460.461V466.395H1246.24V460.461C1246.24 453.478 1249.73 449.639 1255.66 449.639ZM1302.78 446.496C1297.89 446.496 1294.05 449.29 1291.61 453.478V452.431L1291.26 447.195H1288.47V488.387H1291.96V463.253C1291.96 454.875 1296.15 449.639 1302.43 449.639C1304.18 449.639 1305.92 449.987 1307.32 450.336V446.846C1305.92 446.496 1304.52 446.496 1302.78 446.496ZM1334.54 446.496C1327.21 446.496 1322.32 451.035 1321.98 457.667H1325.47C1325.47 452.78 1329.31 449.639 1334.54 449.639C1340.13 449.639 1343.27 453.13 1343.27 459.413V464.649H1334.89C1325.81 464.649 1320.93 469.188 1320.93 476.867C1320.93 484.897 1325.81 489.434 1333.14 489.434C1338.03 489.434 1341.17 487.341 1343.27 484.198L1343.62 488.737H1346.76V459.413C1346.41 451.384 1341.87 446.496 1334.54 446.496ZM1333.49 485.943C1327.91 485.943 1324.07 482.802 1324.07 476.867C1324.07 470.933 1327.56 467.791 1334.54 467.791H1343.27V475.82C1342.92 482.453 1339.43 485.943 1333.49 485.943ZM1380.62 485.594C1375.37 485.594 1372.94 482.802 1372.94 477.216V450.336H1382.01V447.195H1372.94V437.42H1369.44V447.195H1363.51V450.336H1369.44V477.216C1369.44 484.897 1373.28 488.737 1380.62 488.737H1382.71V485.594H1380.62ZM1401.55 439.515C1403.29 439.515 1404.69 438.468 1404.69 436.373C1404.69 434.628 1403.65 433.231 1401.55 433.231C1399.81 433.231 1398.41 434.628 1398.41 436.373C1398.41 438.118 1399.81 439.515 1401.55 439.515ZM1399.81 488.387H1403.29V447.195H1399.81V488.387ZM1436.11 489.434C1444.13 489.434 1449.37 484.198 1449.37 475.471V460.809C1449.37 451.733 1444.13 446.846 1436.11 446.846C1428.08 446.846 1422.84 452.082 1422.84 460.809V475.471C1423.19 484.198 1428.08 489.434 1436.11 489.434ZM1436.11 485.943C1430.17 485.943 1426.34 482.103 1426.34 475.122V460.461C1426.34 453.478 1430.17 449.639 1436.11 449.639C1442.04 449.639 1445.88 453.478 1445.88 460.461V475.122C1445.88 482.103 1442.04 485.943 1436.11 485.943ZM1483.57 446.496C1478.34 446.496 1474.5 449.29 1472.41 453.478V452.78L1472.05 447.544H1469.27V488.737H1472.76V463.602C1472.76 455.223 1476.95 449.987 1483.23 449.987C1488.8 449.987 1491.25 454.177 1491.25 462.554V488.737H1494.74V462.206C1494.39 451.035 1490.2 446.496 1483.57 446.496ZM621.485 423.456C614.155 422.759 607.523 419.966 601.591 414.729C595.657 409.493 591.12 403.21 588.676 395.53L587.28 391.69V333.391C587.28 294.992 587.28 275.443 587.629 275.094C587.978 274.744 603.335 274.744 634.398 274.395C665.112 274.395 682.215 274.395 685.705 274.395L690.591 274.744V282.424V290.454L688.148 290.803C686.403 291.152 675.235 291.152 654.642 291.152H623.928V312.097V333.043H645.917C660.576 333.043 668.603 333.391 669.301 333.391L670.697 333.74L671.046 341.071L671.395 348.402L669.65 348.752C668.603 349.101 660.576 349.101 645.917 349.101H624.277V365.857C624.277 375.282 624.626 381.217 624.975 384.009C625.324 386.803 626.371 389.246 627.767 391.69C630.21 395.879 633.701 399.37 638.587 401.465C640.332 402.511 641.728 403.21 642.775 403.21C643.822 403.558 646.265 403.558 650.105 403.908C655.34 404.257 663.368 404.257 673.838 404.257C684.309 404.257 689.894 404.606 690.243 404.954C690.94 405.304 690.94 408.446 690.94 413.683V422.06L689.195 422.41C688.148 422.759 677.328 422.759 656.737 422.759C635.445 423.806 623.928 423.806 621.485 423.456ZM756.557 423.806C744.69 422.41 734.568 418.919 726.192 413.333C724.796 412.285 724.097 411.937 723.749 411.937C723.4 411.937 722.004 410.54 718.862 407.398C716.07 404.257 713.627 401.115 711.533 397.275C708.741 391.34 706.646 385.057 705.25 377.726C704.553 374.235 704.553 356.083 704.553 323.617C704.553 291.152 704.902 275.094 705.25 274.744C705.599 274.395 710.835 274.395 719.909 274.395C729.333 274.395 734.22 274.395 734.568 274.744C734.917 275.094 735.616 290.454 735.616 320.476C735.616 346.657 735.964 362.715 736.313 368.301C736.663 373.886 738.059 380.519 740.153 387.5C740.851 390.293 741.898 392.388 742.945 393.784C743.992 395.18 745.737 397.275 748.18 399.718C752.718 404.257 757.604 407.049 762.839 408.097C764.934 408.446 767.377 408.097 770.169 407.398C775.404 405.653 779.942 402.861 783.781 398.322C786.573 395.53 789.016 391.34 790.761 385.755C792.157 380.518 793.205 375.981 793.553 371.791C793.902 367.602 793.902 351.893 794.252 324.664C794.252 291.501 794.601 275.094 795.299 274.744C795.648 274.395 800.883 274.395 809.957 274.395C819.381 274.395 824.267 274.395 824.966 274.744C825.663 275.094 825.663 290.104 825.663 319.777C825.663 344.562 825.663 360.97 825.315 369.347C824.966 377.726 824.267 383.66 823.22 387.5C821.824 392.736 819.73 397.275 816.938 401.115C815.891 402.511 815.542 403.558 815.542 403.908C815.542 404.257 814.495 405.304 812.75 407.049C811.004 408.795 809.26 410.192 807.515 411.239C806.118 412.285 804.025 413.683 800.883 415.428C797.742 417.173 795.299 418.22 793.553 418.919C789.016 420.664 784.479 421.711 779.593 422.759C776.801 423.456 772.961 423.806 767.726 423.806C763.188 424.155 759.349 424.155 756.557 423.806ZM844.511 275.094C844.86 274.744 853.586 274.744 871.037 274.395C888.489 274.395 899.307 274.395 903.147 274.744C918.853 275.792 931.069 281.028 939.445 290.104C946.078 297.086 949.218 305.464 949.218 315.589C949.218 319.777 948.52 322.919 947.822 325.712C946.076 331.297 942.936 336.534 938.05 341.071C933.512 345.61 928.626 349.101 923.739 351.196C921.646 352.242 920.599 352.941 920.599 352.941C920.599 353.289 928.277 364.81 943.983 388.199C959.689 411.239 967.368 423.107 967.368 423.107C967.368 423.107 961.085 423.456 948.52 423.456C935.955 423.456 929.324 423.457 928.277 423.107C927.578 423.107 925.834 421.014 923.042 417.173C920.249 413.333 914.316 404.257 904.544 389.944C889.885 368.301 882.205 357.479 881.508 357.479L880.112 357.129V389.595C880.112 403.558 879.762 412.635 879.762 416.475C879.762 420.315 879.413 422.41 879.065 422.41C878.716 422.759 872.782 422.759 861.614 422.759C850.445 422.759 844.86 422.759 844.162 422.41C843.813 422.06 843.464 397.624 843.464 348.402C844.162 300.228 844.511 275.443 844.511 275.094ZM894.771 340.374C898.959 338.977 902.449 336.883 905.59 333.74C908.731 330.599 910.826 326.759 911.873 322.57C912.92 318.381 912.92 314.191 911.873 309.654C910.826 305.115 908.731 301.973 905.94 299.181C901.402 294.992 894.771 292.548 886.394 292.548H881.159V316.635V341.071H886.743C889.884 341.421 892.676 341.071 894.771 340.374ZM1047.29 423.806C1034.38 422.41 1022.86 418.57 1012.39 411.588C1001.92 404.606 993.893 396.227 988.658 385.405C983.771 375.981 980.979 365.857 980.281 354.686C979.584 343.515 980.631 332.693 984.121 322.57C987.61 312.097 993.195 303.021 1000.87 294.992C1010.3 285.566 1021.81 278.934 1035.08 275.443C1048.34 271.952 1061.95 271.952 1075.22 275.443C1088.48 278.934 1100 285.217 1109.42 294.992C1118.84 304.417 1125.48 316.635 1128.62 331.647C1129.31 335.136 1129.66 340.374 1129.66 347.705C1129.66 354.686 1129.31 360.271 1128.62 363.763C1126.52 374.585 1123.03 383.66 1117.8 391.69C1110.47 402.511 1100.35 410.889 1087.43 416.475C1074.52 422.759 1061.25 424.853 1047.29 423.806ZM1061.6 407.398C1072.42 404.606 1080.45 396.926 1085.34 384.359C1089.18 374.585 1090.92 362.715 1090.92 348.402C1090.92 338.279 1089.88 329.203 1088.13 321.173C1085.34 310.701 1081.15 302.672 1075.56 297.435C1069.98 291.85 1063 289.057 1054.97 289.057C1047.29 289.057 1040.66 291.501 1035.08 296.737C1029.49 301.973 1025.31 308.955 1022.51 318.381C1021.12 323.268 1020.07 327.807 1019.72 331.647C1019.37 335.486 1019.02 341.071 1019.02 348.402C1019.02 357.479 1019.37 364.111 1020.07 367.951C1022.16 378.424 1024.96 386.803 1028.8 393.086C1032.63 399.37 1037.87 403.558 1044.15 406.002C1050.09 408.446 1055.67 408.795 1061.6 407.398Z" fill="white"></path><path d="M370.186 355.734H354.131L284.675 424.855C280.138 429.392 272.459 429.392 267.922 424.855C263.385 420.316 263.385 412.637 267.922 408.098L320.276 355.734H251.867C245.235 355.734 240 350.498 240 343.865C240 337.233 245.235 331.997 251.867 331.997H320.625L268.271 279.633C263.734 275.095 263.734 267.415 268.271 262.877C272.808 258.338 280.487 258.338 285.024 262.877L354.131 331.997H372.978V311.749L303.522 242.28C298.985 237.742 298.985 230.062 303.522 225.524C308.06 220.986 315.738 220.986 320.276 225.524L372.629 277.887V210.862C372.629 204.23 377.864 198.993 384.496 198.993C391.127 198.993 396.363 204.23 396.363 210.862V278.237L448.716 225.873C453.254 221.335 460.932 221.335 465.47 225.873C470.007 230.411 470.007 238.091 465.47 242.629L396.712 311.749V331.997H418.002L487.11 262.877C491.646 258.338 499.325 258.338 503.862 262.877C508.4 267.415 508.4 275.095 503.862 279.633L451.509 331.997H517.824C524.455 331.997 529.69 337.233 529.69 343.865C529.69 350.498 524.455 355.734 517.824 355.734H451.509L503.862 408.098C508.4 412.637 508.4 420.316 503.862 424.855C499.325 429.392 491.646 429.392 487.11 424.855L418.002 355.734H399.155L384.845 341.421L370.186 355.734ZM1214.82 423.457C1201.21 422.061 1188.65 418.221 1177.48 411.589C1169.45 406.352 1163.17 401.116 1158.63 395.531C1150.6 385.407 1145.37 373.188 1143.62 358.877C1141.88 344.912 1143.62 331.298 1148.86 319.08C1152.7 309.655 1158.63 301.277 1166.31 294.295C1168.4 292.549 1170.85 290.804 1173.99 288.36C1177.13 286.266 1178.87 284.869 1179.22 284.869C1179.57 284.869 1181.67 283.822 1185.51 282.077C1192.49 278.935 1199.47 276.491 1207.15 275.095C1210.98 274.397 1215.87 274.047 1221.8 274.047C1227.74 274.047 1232.62 274.397 1236.46 275.095C1244.84 276.491 1252.87 278.935 1259.85 282.426L1265.78 285.218L1265.08 287.313C1263.69 290.804 1262.29 293.596 1261.59 295.342C1260.9 297.087 1260.2 298.484 1259.85 299.88C1259.5 300.927 1259.15 301.626 1258.8 301.626C1258.45 301.626 1258.45 301.626 1258.45 301.626C1258.1 300.927 1256.71 300.229 1254.61 298.833C1252.52 297.436 1250.42 296.738 1249.03 296.04C1246.93 295.342 1244.84 294.644 1243.09 293.596C1241 292.549 1236.81 291.502 1230.88 290.106C1213.08 286.964 1199.82 293.596 1191.79 310.353C1189 315.939 1187.25 322.222 1185.51 329.902C1184.81 333.742 1184.46 338.978 1184.46 346.308C1184.46 353.291 1184.81 359.225 1185.16 363.414C1187.95 384.36 1194.93 397.625 1205.75 403.56C1209.94 405.654 1213.78 407.051 1217.62 407.399C1221.11 408.098 1225.64 407.749 1231.23 407.051C1239.95 405.654 1248.33 403.908 1255.66 401.116C1258.45 400.068 1260.2 399.72 1260.55 399.72C1260.9 399.72 1260.9 402.163 1260.9 407.051C1260.9 411.938 1260.9 414.382 1260.55 414.73C1260.2 415.08 1258.45 416.126 1255.31 417.174C1252.17 418.221 1249.73 419.269 1247.98 419.618C1245.89 419.967 1244.84 420.316 1244.49 420.665C1243.09 421.364 1238.56 422.411 1230.18 423.109C1225.64 423.807 1220.41 423.807 1214.82 423.457ZM1348.15 423.807C1335.24 422.411 1323.72 418.57 1313.25 411.589C1302.78 404.607 1294.75 396.229 1289.52 385.407C1284.63 375.982 1281.84 365.858 1281.14 354.687C1280.44 343.516 1281.49 332.694 1284.98 322.571C1288.47 312.099 1294.05 303.022 1301.73 294.993C1311.16 285.567 1322.67 278.935 1335.94 275.444C1349.2 271.953 1362.81 271.953 1376.08 275.444C1389.33 278.935 1400.86 285.218 1410.28 294.993C1419.7 304.418 1426.34 316.636 1429.48 331.648C1430.17 335.138 1430.52 340.375 1430.52 347.706C1430.52 354.687 1430.17 360.273 1429.48 363.764C1427.38 374.586 1423.89 383.662 1418.66 391.69C1411.33 402.512 1401.2 410.89 1388.29 416.476C1375.72 422.76 1362.46 424.855 1348.15 423.807ZM1362.81 407.399C1373.63 404.607 1381.65 396.927 1386.55 384.36C1390.38 374.586 1392.13 362.716 1392.13 348.403C1392.13 338.28 1391.08 329.204 1389.33 321.175C1386.55 310.701 1382.36 302.673 1376.77 297.436C1371.18 291.851 1364.21 289.058 1356.18 289.058C1348.5 289.058 1341.87 291.502 1336.28 296.738C1330.7 301.975 1326.51 308.956 1323.72 318.382C1322.32 323.269 1321.28 327.807 1320.93 331.648C1320.58 335.488 1320.23 341.072 1320.23 348.403C1320.23 357.48 1320.58 364.113 1321.28 367.952C1323.37 378.426 1326.16 386.803 1330 393.087C1333.84 399.371 1339.08 403.56 1345.36 406.003C1350.94 408.447 1356.88 408.796 1362.81 407.399ZM1480.78 423.457C1472.41 422.76 1464.73 418.92 1458.09 411.938C1453.91 407.749 1450.77 403.908 1449.37 399.72C1447.62 395.531 1446.58 390.294 1446.23 384.01C1445.87 378.774 1445.87 359.574 1445.87 325.713C1445.87 292.2 1446.23 275.095 1446.58 274.746C1446.92 274.397 1452.86 274.047 1464.02 274.047C1475.2 274.047 1481.12 274.397 1481.83 274.746C1482.52 275.095 1482.88 293.596 1482.88 330.6C1482.88 333.044 1482.88 336.534 1482.88 341.072C1482.88 364.461 1483.23 378.076 1483.57 382.614C1483.92 386.804 1484.62 389.945 1485.66 392.04C1486.02 392.389 1486.02 392.738 1486.37 392.738C1488.46 396.577 1491.95 399.72 1496.84 402.163C1498.93 402.862 1500.33 403.56 1501.38 403.908C1502.42 404.258 1504.86 404.258 1508.35 404.607C1513.59 404.607 1520.57 404.956 1529.64 404.956C1538.72 404.956 1543.6 405.306 1544.31 405.654C1545 406.003 1545 409.145 1545 414.382V422.76L1543.6 423.109C1542.56 423.457 1532.44 423.457 1512.89 423.457C1493.34 423.457 1483.23 423.807 1480.78 423.457ZM1558.26 423.457C1557.56 423.457 1557.21 422.76 1557.21 422.411C1557.21 421.712 1556.87 419.967 1556.87 417.524C1556.52 413.334 1556.52 388.898 1556.52 343.516C1556.52 298.135 1556.87 275.444 1557.21 275.095C1557.56 274.746 1568.39 274.746 1589.67 274.746C1610.96 274.746 1622.83 275.095 1625.63 275.444C1647.26 278.237 1663.67 285.567 1674.84 296.389C1683.22 304.767 1688.79 316.287 1691.94 330.949C1692.99 335.138 1693.33 341.072 1693.33 348.752C1693.33 356.083 1692.99 361.669 1691.94 365.509C1688.79 378.426 1683.22 389.596 1674.84 398.672C1666.46 407.749 1656.34 414.382 1643.78 418.57C1636.1 421.014 1628.42 422.411 1620.74 423.109C1617.95 423.457 1606.78 423.457 1588.28 423.457C1569.08 423.807 1559.32 423.807 1558.26 423.457ZM1614.46 403.56C1620.74 402.163 1626.68 398.672 1632.25 393.785C1638.19 388.898 1642.73 382.963 1646.21 375.982C1650.75 366.556 1652.85 356.433 1652.5 345.262C1651.8 334.09 1649.01 324.317 1643.78 316.287C1638.53 308.258 1631.56 302.324 1623.18 298.135C1617.25 294.993 1609.92 293.247 1601.19 292.898L1593.52 292.549V348.403V404.258L1602.59 403.908C1608.53 404.607 1612.36 404.258 1614.46 403.56Z" fill="white"></path><path d="M1701.37 261.131V220.637H1719.16C1722.66 220.637 1725.44 220.986 1727.54 221.684C1729.29 222.382 1731.03 223.778 1732.08 225.524C1733.12 227.269 1733.83 229.364 1733.83 231.458C1733.83 234.251 1732.78 236.695 1731.03 238.789C1729.29 240.884 1726.15 241.931 1722.3 242.629C1723.7 243.328 1724.75 244.026 1725.44 244.724C1726.84 246.12 1728.58 247.866 1729.98 249.96L1736.97 261.131H1730.34L1725.1 252.753C1723.7 250.309 1722.3 248.564 1721.26 247.168C1720.21 245.771 1719.16 245.073 1718.47 244.375C1717.76 244.026 1716.73 243.677 1716.02 243.328C1715.33 243.328 1714.28 242.978 1712.88 242.978H1706.6V261.131H1701.37ZM1716.37 198.993C1728.24 198.993 1739.41 203.531 1747.09 211.211C1755.12 218.891 1760 229.364 1760 240.884C1760 252.404 1755.12 262.877 1747.09 270.557C1739.06 278.237 1728.24 282.775 1716.37 282.775C1704.51 282.775 1693.33 278.237 1685.66 270.557C1677.63 262.877 1672.75 252.404 1672.75 240.884C1672.75 229.364 1677.63 218.891 1685.66 211.211C1693.33 203.88 1704.51 198.993 1716.37 198.993ZM1742.55 216.099C1735.92 209.815 1726.49 205.626 1716.37 205.626C1706.25 205.626 1696.83 209.466 1690.19 216.099C1683.56 222.382 1679.37 231.109 1679.37 240.884C1679.37 250.658 1683.56 259.386 1690.19 265.669C1696.83 271.953 1706.25 276.142 1716.37 276.142C1726.49 276.142 1735.92 272.302 1742.55 265.669C1749.18 259.386 1753.37 250.658 1753.37 240.884C1753.37 231.109 1749.18 222.382 1742.55 216.099ZM1706.6 238.44H1718.12C1720.56 238.44 1722.3 238.091 1723.7 237.742C1725.1 237.393 1726.15 236.346 1726.84 235.298C1727.54 234.251 1727.89 232.855 1727.89 231.808C1727.89 230.062 1727.2 228.317 1725.8 226.92C1724.4 225.524 1722.3 225.175 1719.16 225.175H1706.25L1706.6 238.44Z" fill="white"></path></g></g><defs><clipPath id="clip0_2064_73"><rect width="2000" height="700" fill="white"></rect></clipPath><clipPath id="clip1_2064_73"><rect width="1520" height="313" fill="white" transform="translate(240 193)"></rect></clipPath></defs></svg> 