<?xml version="1.0" encoding="UTF-8"?> <svg xmlns="http://www.w3.org/2000/svg" width="2000" height="700" viewBox="0 0 2000 700" fill="none"><g clip-path="url(#clip0_2064_32)"><rect width="2000" height="700" fill="white"></rect><g clip-path="url(#clip1_2064_32)"><path d="M746.772 483.984H645.001V506.486H682.564V602.438H709.212V506.486H746.775L746.772 483.984ZM846.289 562.225C844.242 567.398 840.908 571.962 836.602 575.484C832.296 579.006 827.161 581.369 821.686 582.348C819.644 582.71 817.575 582.893 815.502 582.896C813.404 582.896 811.336 582.699 809.339 582.348C803.864 581.371 798.73 579.009 794.425 575.487C790.12 571.965 786.789 567.399 784.747 562.225C782.373 556.168 781.156 549.719 781.16 543.212C781.16 536.503 782.437 530.076 784.747 524.188C786.791 519.016 790.124 514.452 794.428 510.931C798.732 507.409 803.865 505.047 809.339 504.068C813.419 503.316 817.603 503.316 821.683 504.068C827.158 505.045 832.292 507.406 836.598 510.927C840.905 514.447 844.239 519.01 846.286 524.183C851.057 536.415 851.06 549.993 846.289 562.225ZM815.497 480.425C780.843 480.425 752.721 508.534 752.721 543.212C752.721 577.868 780.843 605.983 815.5 605.983C850.178 605.983 878.278 577.868 878.278 543.215C878.278 508.534 850.176 480.425 815.497 480.425ZM878.699 483.984H910.087L939.399 534.912L968.711 483.984H1000.09L952.72 558.615V602.438H926.078V558.615L878.699 483.984ZM1063.36 582.908C1065.46 582.908 1067.54 582.696 1069.53 582.348C1075 581.374 1080.14 579.015 1084.44 575.494C1088.75 571.972 1092.08 567.408 1094.12 562.234C1098.93 550.011 1098.93 536.422 1094.12 524.2C1092.08 519.025 1088.75 514.458 1084.44 510.935C1080.14 507.413 1075 505.05 1069.53 504.074C1065.44 503.342 1061.25 503.342 1057.17 504.074C1051.69 505.05 1046.56 507.412 1042.26 510.934C1037.95 514.456 1034.63 519.021 1032.59 524.194C1030.21 530.25 1028.99 536.7 1028.99 543.207C1028.99 549.922 1030.26 556.332 1032.59 562.231C1034.62 567.404 1037.95 571.969 1042.26 575.49C1046.56 579.012 1051.69 581.372 1057.17 582.346C1059.21 582.715 1061.29 582.903 1063.36 582.908ZM1000.57 543.207C1000.57 508.532 1028.67 480.411 1063.36 480.411C1098.01 480.411 1126.14 508.52 1126.14 543.207C1126.13 577.859 1098.01 605.997 1063.36 605.997C1028.67 605.997 1000.57 577.859 1000.57 543.207ZM1307.89 555.552L1290.45 508.752L1272.99 555.552H1307.89ZM1315.62 576.277H1265.21L1255.51 602.361H1225.87L1273.85 483.897H1307L1355 602.361H1325.39L1315.62 576.277ZM1233.7 483.981H1131.93V506.486H1169.51L1169.5 602.435H1196.16L1196.14 506.486H1233.7V483.981ZM1116.66 109.62C1084.1 99.1022 1043.75 93 1000 93C956.254 93 915.898 99.105 883.343 109.62C796.868 137.43 737.521 195.09 737.521 261.565C737.521 355.177 854.859 431.488 1000 431.488C1144.81 431.488 1262.48 355.516 1262.48 261.565C1262.48 195.09 1203.13 137.43 1116.66 109.62ZM1000 358.567C978.298 358.567 960.663 316.171 959.647 262.585C972.533 263.941 986.097 264.28 1000 264.28C1013.9 264.28 1027.47 263.602 1040.36 262.585C1039.34 316.171 1021.71 358.567 1000 358.567ZM962.358 220.867C968.121 183.219 982.705 156.765 1000 156.765C1016.96 156.765 1031.54 183.219 1037.64 220.867C1025.77 221.884 1012.89 222.562 1000 222.562C987.114 222.562 974.567 221.884 962.358 220.867ZM1060.7 217.815C1051.89 159.138 1028.15 116.742 1000 116.742C971.855 116.742 948.116 158.799 939.297 217.813C886.058 209.334 848.752 190.68 848.752 168.633C848.752 138.786 916.578 114.708 1000 114.708C1083.42 114.708 1151.25 138.786 1151.25 168.633C1151.25 190.68 1113.95 209.676 1060.7 217.815ZM775.844 255.457C775.844 226.63 787.032 199.834 806.365 176.433C806.026 178.129 806.026 179.824 806.026 181.18C806.026 217.471 860.282 247.996 935.905 259.528V267.667C935.905 334.822 954.559 391.802 980.332 411.475C865.709 404.692 775.841 337.54 775.841 255.46L775.844 255.457ZM1019.67 411.814C1045.44 392.143 1064.1 335.161 1064.1 268.006V259.87C1139.72 248.674 1193.97 217.81 1193.97 181.519C1193.97 179.824 1193.97 178.129 1193.64 176.772C1212.97 199.834 1224.16 226.969 1224.16 255.799C1224.16 337.537 1134.29 404.692 1019.67 411.814H1019.67Z" fill="black"></path></g></g><defs><clipPath id="clip0_2064_32"><rect width="2000" height="700" fill="white"></rect></clipPath><clipPath id="clip1_2064_32"><rect width="710" height="513" fill="white" transform="translate(645 93)"></rect></clipPath></defs></svg> 