<?xml version="1.0" encoding="UTF-8"?> <svg xmlns="http://www.w3.org/2000/svg" width="76" height="75" viewBox="0 0 76 75" fill="none"><circle cx="38" cy="37.5" r="37.5" fill="url(#paint0_linear_0_540)"></circle><path d="M29.3211 40.9722C28.5632 40.9733 27.8148 41.1398 27.1279 41.46C26.4411 41.7803 25.8324 42.2466 25.3443 42.8263C24.8563 43.4061 24.5006 44.0854 24.3022 44.8168C24.1038 45.5482 24.0673 46.3141 24.1955 47.061C24.3236 47.8079 24.6131 48.5179 25.044 49.1414C25.4748 49.7648 26.0365 50.2868 26.6898 50.6708C27.3432 51.0548 28.0725 51.2915 28.8268 51.3646C29.5811 51.4376 30.3423 51.3452 31.0572 51.0937" stroke="white" stroke-width="1.5" stroke-linecap="round" stroke-linejoin="round"></path><path d="M24.5702 43.7586C23.5312 43.2584 22.6332 42.5074 21.9571 41.5733C21.281 40.6393 20.8481 39.5515 20.6975 38.4083C20.547 37.2651 20.6834 36.1024 21.0946 35.0251C21.5058 33.9478 22.1788 32.9899 23.0528 32.2378M23.1049 32.0971C22.5355 31.2452 22.286 30.2192 22.4004 29.2009C22.5149 28.1825 22.9859 27.2375 23.7302 26.5332C24.4745 25.8288 25.444 25.4105 26.467 25.3523C27.4901 25.2941 28.5008 25.5998 29.3202 26.2152M29.7334 26.3281C29.4564 25.7396 29.3152 25.0964 29.3203 24.446C29.3254 23.7957 29.4765 23.1548 29.7626 22.5707C30.0487 21.9866 30.4623 21.4743 30.9731 21.0716C31.4838 20.6689 32.0785 20.3861 32.7132 20.2442C33.3479 20.1022 34.0063 20.1047 34.6399 20.2515C35.2735 20.3983 35.8661 20.6856 36.3737 21.0921C36.8813 21.4987 37.2911 22.0142 37.5727 22.6004C37.8543 23.1867 38.0006 23.8287 38.0007 24.4791V51.3888C38.0007 52.3097 37.6349 53.1929 36.9837 53.844C36.3326 54.4952 35.4494 54.861 34.5285 54.861C33.6076 54.861 32.7244 54.4952 32.0733 53.844C31.4221 53.1929 31.0563 52.3097 31.0563 51.3888M38.0007 28.8194C38.0007 30.2007 38.5494 31.5255 39.5262 32.5022C40.503 33.479 41.8277 34.0277 43.209 34.0277M46.6813 40.9722C47.4391 40.9733 48.1876 41.1398 48.8744 41.46C49.5613 41.7803 50.17 42.2465 50.658 42.8263C51.1461 43.4061 51.5017 44.0854 51.7001 44.8168C51.8986 45.5482 51.935 46.3141 51.8069 47.061C51.6788 47.8079 51.3892 48.5179 50.9584 49.1414C50.5275 49.7648 49.9658 50.2868 49.3125 50.6707C48.6591 51.0547 47.9298 51.2915 47.1755 51.3646C46.4212 51.4376 45.6601 51.3452 44.9452 51.0937" stroke="white" stroke-width="1.5" stroke-linecap="round" stroke-linejoin="round"></path><path d="M51.4319 43.7586C52.4709 43.2584 53.3689 42.5074 54.045 41.5733C54.7211 40.6393 55.154 39.5515 55.3045 38.4083C55.4551 37.2651 55.3186 36.1024 54.9074 35.0251C54.4962 33.9478 53.8233 32.9899 52.9493 32.2378M52.8972 32.0971C53.4665 31.2452 53.7161 30.2192 53.6017 29.2009C53.4872 28.1825 53.0162 27.2375 52.2719 26.5332C51.5276 25.8288 50.5581 25.4105 49.535 25.3523C48.5119 25.2941 47.5013 25.5998 46.6819 26.2152M38.0013 24.4791C38.0014 23.8287 38.1477 23.1867 38.4293 22.6004C38.711 22.0142 39.1207 21.4987 39.6284 21.0921C40.136 20.6856 40.7285 20.3983 41.3621 20.2515C41.9957 20.1047 42.6542 20.1022 43.2889 20.2442C43.9236 20.3861 44.5183 20.6689 45.029 21.0716C45.5397 21.4743 45.9534 21.9866 46.2395 22.5707C46.5256 23.1548 46.6767 23.7957 46.6818 24.446C46.6868 25.0964 46.5457 25.7396 46.2687 26.3281M44.9458 51.3888C44.9458 52.3097 44.58 53.1929 43.9288 53.844C43.2776 54.4952 42.3945 54.861 41.4736 54.861C40.5527 54.861 39.6695 54.4952 39.0183 53.844C38.3672 53.1929 38.0013 52.3097 38.0013 51.3888" stroke="white" stroke-width="1.5" stroke-linecap="round" stroke-linejoin="round"></path><defs><linearGradient id="paint0_linear_0_540" x1="37.8938" y1="2.99587e-08" x2="37.8938" y2="107.212" gradientUnits="userSpaceOnUse"><stop stop-color="#219BE3"></stop><stop offset="1" stop-color="#2477A8"></stop></linearGradient></defs></svg> 