<?xml version="1.0" encoding="UTF-8"?> <svg xmlns="http://www.w3.org/2000/svg" width="76" height="75" viewBox="0 0 76 75" fill="none"><circle cx="38" cy="37.5" r="37.5" fill="url(#paint0_linear_0_523)"></circle><path d="M38.8332 20.1388C48.4217 20.1388 56.1943 27.9114 56.1943 37.4999C56.1943 40.6614 55.3488 43.6284 53.8714 46.1805M26.6804 25.1023C25.0291 26.7169 23.7176 28.6455 22.8231 30.7747C21.9286 32.9038 21.4693 35.1905 21.4721 37.4999C21.4721 47.0884 29.2447 54.861 38.8332 54.861C41.9947 54.861 44.9617 54.0155 47.5138 52.5381" stroke="white" stroke-width="1.5" stroke-linecap="round"></path><path d="M26.6811 37.4999C26.6811 40.0815 27.4866 42.4756 28.8599 44.4444M38.8338 25.3472C40.6561 25.348 42.4548 25.7585 44.0969 26.5485C45.739 27.3384 47.1824 28.4876 48.3204 29.9108C49.4583 31.334 50.2616 32.9949 50.6709 34.7706C51.0801 36.5463 51.0848 38.3913 50.6846 40.169C50.2844 41.9468 49.4895 43.6117 48.3588 45.0407C47.2281 46.4697 45.7906 47.6262 44.1525 48.4245C42.5144 49.2228 40.7178 49.6425 38.8956 49.6525C37.0734 49.6626 35.2723 49.2627 33.6255 48.4826" stroke="white" stroke-width="1.5" stroke-linecap="round"></path><path d="M38.8334 44.4443C40.6752 44.4443 42.4415 43.7127 43.7439 42.4103C45.0462 41.108 45.7778 39.3416 45.7778 37.4999C45.7778 35.6581 45.0462 33.8917 43.7439 32.5894C42.4415 31.2871 40.6752 30.5554 38.8334 30.5554" stroke="white" stroke-width="1.5" stroke-linecap="round"></path><defs><linearGradient id="paint0_linear_0_523" x1="37.8938" y1="2.99587e-08" x2="37.8938" y2="107.212" gradientUnits="userSpaceOnUse"><stop stop-color="#219BE3"></stop><stop offset="1" stop-color="#2477A8"></stop></linearGradient></defs></svg> 