<?xml version="1.0" encoding="UTF-8"?> <svg xmlns="http://www.w3.org/2000/svg" width="76" height="75" viewBox="0 0 76 75" fill="none"><circle cx="38" cy="37.5" r="37.5" fill="url(#paint0_linear_0_532)"></circle><path d="M29.3197 34.0276L33.3006 38.0085C33.6262 38.334 34.0677 38.5168 34.528 38.5168C34.9884 38.5168 35.4299 38.334 35.7555 38.0085L38.5089 35.255C38.8345 34.9295 39.276 34.7467 39.7364 34.7467C40.1967 34.7467 40.6382 34.9295 40.9638 35.255L46.6808 40.972M46.6808 40.972V36.6318M46.6808 40.972H42.3405" stroke="white" stroke-width="1.5" stroke-linecap="round" stroke-linejoin="round"></path><path d="M55.3622 37.4999C55.3622 45.6839 55.3622 49.7759 52.8188 52.3176C50.2789 54.861 46.1852 54.861 38.0011 54.861C29.8171 54.861 25.7251 54.861 23.1817 52.3176C20.64 49.7777 20.64 45.6839 20.64 37.4999C20.64 29.3159 20.64 25.2239 23.1817 22.6805C25.7268 20.1388 29.8171 20.1388 38.0011 20.1388C46.1852 20.1388 50.2772 20.1388 52.8188 22.6805C54.5098 24.3714 55.0758 26.7482 55.2667 30.5555" stroke="white" stroke-width="1.5" stroke-linecap="round"></path><defs><linearGradient id="paint0_linear_0_532" x1="37.8938" y1="2.99587e-08" x2="37.8938" y2="107.212" gradientUnits="userSpaceOnUse"><stop stop-color="#219BE3"></stop><stop offset="1" stop-color="#2477A8"></stop></linearGradient></defs></svg> 