<?xml version="1.0" encoding="UTF-8"?> <svg xmlns="http://www.w3.org/2000/svg" width="80" height="80" viewBox="0 0 80 80" fill="none"><path d="M40.0007 63.3334C36.334 63.3334 33.334 66.3334 33.334 70C33.334 73.6667 36.334 76.6667 40.0007 76.6667C43.6673 76.6667 46.6673 73.6667 46.6673 70C46.6673 66.3334 43.6673 63.3334 40.0007 63.3334ZM20.0007 3.33337C16.334 3.33337 13.334 6.33337 13.334 10C13.334 13.6667 16.334 16.6667 20.0007 16.6667C23.6673 16.6667 26.6673 13.6667 26.6673 10C26.6673 6.33337 23.6673 3.33337 20.0007 3.33337ZM20.0007 23.3334C16.334 23.3334 13.334 26.3334 13.334 30C13.334 33.6667 16.334 36.6667 20.0007 36.6667C23.6673 36.6667 26.6673 33.6667 26.6673 30C26.6673 26.3334 23.6673 23.3334 20.0007 23.3334ZM20.0007 43.3334C16.334 43.3334 13.334 46.3334 13.334 50C13.334 53.6667 16.334 56.6667 20.0007 56.6667C23.6673 56.6667 26.6673 53.6667 26.6673 50C26.6673 46.3334 23.6673 43.3334 20.0007 43.3334ZM60.0006 16.6667C63.6673 16.6667 66.6673 13.6667 66.6673 10C66.6673 6.33337 63.6673 3.33337 60.0006 3.33337C56.334 3.33337 53.334 6.33337 53.334 10C53.334 13.6667 56.334 16.6667 60.0006 16.6667ZM40.0007 43.3334C36.334 43.3334 33.334 46.3334 33.334 50C33.334 53.6667 36.334 56.6667 40.0007 56.6667C43.6673 56.6667 46.6673 53.6667 46.6673 50C46.6673 46.3334 43.6673 43.3334 40.0007 43.3334ZM60.0006 43.3334C56.334 43.3334 53.334 46.3334 53.334 50C53.334 53.6667 56.334 56.6667 60.0006 56.6667C63.6673 56.6667 66.6673 53.6667 66.6673 50C66.6673 46.3334 63.6673 43.3334 60.0006 43.3334ZM60.0006 23.3334C56.334 23.3334 53.334 26.3334 53.334 30C53.334 33.6667 56.334 36.6667 60.0006 36.6667C63.6673 36.6667 66.6673 33.6667 66.6673 30C66.6673 26.3334 63.6673 23.3334 60.0006 23.3334ZM40.0007 23.3334C36.334 23.3334 33.334 26.3334 33.334 30C33.334 33.6667 36.334 36.6667 40.0007 36.6667C43.6673 36.6667 46.6673 33.6667 46.6673 30C46.6673 26.3334 43.6673 23.3334 40.0007 23.3334ZM40.0007 3.33337C36.334 3.33337 33.334 6.33337 33.334 10C33.334 13.6667 36.334 16.6667 40.0007 16.6667C43.6673 16.6667 46.6673 13.6667 46.6673 10C46.6673 6.33337 43.6673 3.33337 40.0007 3.33337Z" fill="url(#paint0_linear_2006_199)"></path><defs><linearGradient id="paint0_linear_2006_199" x1="39.9251" y1="3.33337" x2="39.9251" y2="108.162" gradientUnits="userSpaceOnUse"><stop stop-color="#219BE3"></stop><stop offset="1" stop-color="#2477A8"></stop></linearGradient></defs></svg> 