<?xml version="1.0" encoding="UTF-8"?> <svg xmlns="http://www.w3.org/2000/svg" width="80" height="80" viewBox="0 0 80 80" fill="none"><path d="M40.0007 28.3334C36.9673 28.3334 30.834 29.8667 30.834 32.9334V48.3334H35.834V63.3334H44.1673V48.3334H49.1673V32.9334C49.1673 29.9 43.034 28.3334 40.0007 28.3334Z" fill="url(#paint0_linear_2006_205)"></path><path d="M39.9994 6.66663C21.566 6.66663 6.66602 21.5666 6.66602 40C6.66602 58.4333 21.566 73.3333 39.9994 73.3333C58.4327 73.3333 73.3327 58.4 73.3327 40C73.3327 21.6 58.3994 6.66663 39.9994 6.66663ZM39.9994 66.6666C25.266 66.6666 13.3327 54.7333 13.3327 40C13.3327 25.2666 25.266 13.3333 39.9994 13.3333C54.7327 13.3333 66.666 25.2666 66.666 40C66.666 54.7333 54.7327 66.6666 39.9994 66.6666Z" fill="url(#paint1_linear_2006_205)"></path><path d="M40 26.6666C42.7614 26.6666 45 24.428 45 21.6666C45 18.9052 42.7614 16.6666 40 16.6666C37.2386 16.6666 35 18.9052 35 21.6666C35 24.428 37.2386 26.6666 40 26.6666Z" fill="url(#paint2_linear_2006_205)"></path><defs><linearGradient id="paint0_linear_2006_205" x1="39.9747" y1="28.3334" x2="39.9747" y2="78.3654" gradientUnits="userSpaceOnUse"><stop stop-color="#219BE3"></stop><stop offset="1" stop-color="#2477A8"></stop></linearGradient><linearGradient id="paint1_linear_2006_205" x1="39.9049" y1="6.66663" x2="39.9049" y2="101.966" gradientUnits="userSpaceOnUse"><stop stop-color="#219BE3"></stop><stop offset="1" stop-color="#2477A8"></stop></linearGradient><linearGradient id="paint2_linear_2006_205" x1="39.9858" y1="16.6666" x2="39.9858" y2="30.9615" gradientUnits="userSpaceOnUse"><stop stop-color="#219BE3"></stop><stop offset="1" stop-color="#2477A8"></stop></linearGradient></defs></svg> 