<?xml version="1.0" encoding="UTF-8"?> <svg xmlns="http://www.w3.org/2000/svg" width="80" height="80" viewBox="0 0 80 80" fill="none"><path d="M73.3327 19.0666L57.9994 6.19995L53.6994 11.3L69.0327 24.1666L73.3327 19.0666ZM26.266 11.3L21.9993 6.19995L6.66602 19.0333L10.966 24.1333L26.266 11.3ZM39.9994 13.3333C23.4327 13.3333 9.99935 26.7666 9.99935 43.3333C9.99935 59.9 23.3993 73.3333 39.9994 73.3333C47.9558 73.3333 55.5865 70.1726 61.2126 64.5465C66.8386 58.9204 69.9994 51.2898 69.9994 43.3333C69.9994 35.3768 66.8386 27.7462 61.2126 22.1201C55.5865 16.494 47.9558 13.3333 39.9994 13.3333ZM39.9994 66.6666C27.0994 66.6666 16.666 56.2333 16.666 43.3333C16.666 30.4333 27.0994 20 39.9994 20C52.8994 20 63.3327 30.4333 63.3327 43.3333C63.3327 56.2333 52.8994 66.6666 39.9994 66.6666ZM35.1327 48.4333L28.0327 41.3333L24.4993 44.8666L35.0993 55.4666L55.0994 35.4666L51.566 31.9333L35.1327 48.4333Z" fill="url(#paint0_linear_2006_195)"></path><defs><linearGradient id="paint0_linear_2006_195" x1="39.9049" y1="6.19995" x2="39.9049" y2="102.166" gradientUnits="userSpaceOnUse"><stop stop-color="#219BE3"></stop><stop offset="1" stop-color="#2477A8"></stop></linearGradient></defs></svg> 