<?xml version="1.0" encoding="UTF-8"?> <svg xmlns="http://www.w3.org/2000/svg" width="80" height="80" viewBox="0 0 80 80" fill="none"><path d="M37 14.168C32.1918 14.7141 27.6314 16.5911 23.832 19.588L27.12 22.88C27.6499 23.4487 27.9384 24.2009 27.9247 24.9781C27.911 25.7553 27.5961 26.4968 27.0465 27.0465C26.4968 27.5961 25.7553 27.911 24.9781 27.9247C24.2009 27.9384 23.4487 27.6499 22.88 27.12L19.576 23.82C16.7699 27.3434 14.9431 31.5448 14.28 36H21C21.7956 36 22.5587 36.3161 23.1213 36.8787C23.6839 37.4413 24 38.2044 24 39C24 39.7956 23.6839 40.5587 23.1213 41.1213C22.5587 41.6839 21.7956 42 21 42H14.1C14.7228 48.4196 17.6568 54.3942 22.356 58.812C22.9228 59.3595 23.2514 60.1079 23.2709 60.8957C23.2903 61.6834 22.9991 62.4472 22.46 63.022C21.921 63.5968 21.1774 63.9364 20.39 63.9674C19.6026 63.9985 18.8347 63.7185 18.252 63.188C12.092 57.416 8 48.904 8 39.772C8 22.204 22.348 8 40 8C57.652 8 72 22.2 72 39.772C71.9921 44.1563 71.0923 48.4932 69.3553 52.5187C67.6182 56.5443 65.0803 60.1743 61.896 63.188C61.3133 63.7185 60.5454 63.9985 59.758 63.9674C58.9706 63.9364 58.227 63.5968 57.688 63.022C57.1489 62.4472 56.8577 61.6834 56.8771 60.8957C56.8966 60.1079 57.2252 59.3595 57.792 58.812C62.4592 54.3873 65.3448 48.4069 65.904 42H59C58.2044 42 57.4413 41.6839 56.8787 41.1213C56.3161 40.5587 56 39.7956 56 39C56 38.2044 56.3161 37.4413 56.8787 36.8787C57.4413 36.3161 58.2044 36 59 36H65.72C64.024 24.536 54.708 15.5 43 14.168V19C43 19.7956 42.6839 20.5587 42.1213 21.1213C41.5587 21.6839 40.7956 22 40 22C39.2044 22 38.4413 21.6839 37.8787 21.1213C37.3161 20.5587 37 19.7956 37 19V14.168ZM53.796 23.228C54.1595 22.9393 54.6121 22.786 55.0762 22.7945C55.5403 22.8029 55.987 22.9725 56.3398 23.2742C56.6925 23.5759 56.9294 23.9909 57.0097 24.4481C57.09 24.9053 57.0088 25.3761 56.78 25.78L56.34 26.564C54.7314 29.4044 53.1127 32.2391 51.484 35.068C50.1818 37.3317 48.8618 39.5851 47.524 41.828C47.0226 42.6718 46.5106 43.5092 45.988 44.34C45.588 44.968 45.196 45.564 44.908 45.9C43.8747 47.1104 42.4029 47.8608 40.8163 47.9861C39.2298 48.1114 37.6584 47.6013 36.448 46.568C35.2376 45.5347 34.4872 44.0629 34.3619 42.4763C34.2366 40.8898 34.7467 39.3184 35.78 38.108C36.068 37.772 36.592 37.288 37.152 36.796C37.752 36.264 38.524 35.612 39.392 34.88C41.136 33.424 43.32 31.64 45.452 29.92C47.9902 27.8668 50.5369 25.8241 53.092 23.792L53.796 23.228Z" fill="url(#paint0_linear_2006_192)"></path><defs><linearGradient id="paint0_linear_2006_192" x1="39.9093" y1="8" x2="39.9093" y2="88.0081" gradientUnits="userSpaceOnUse"><stop stop-color="#219BE3"></stop><stop offset="1" stop-color="#2477A8"></stop></linearGradient></defs></svg> 