<?xml version="1.0" encoding="UTF-8"?> <svg xmlns="http://www.w3.org/2000/svg" width="80" height="80" viewBox="0 0 80 80" fill="none"><g clip-path="url(#clip0_2006_197)"><path d="M71.6673 49.9334C71.6007 49.9334 71.5673 49.9334 71.5007 49.9667C71.1003 47.2012 69.718 44.6723 67.6064 42.8422C65.4947 41.0121 62.795 40.0032 60.0007 40C55.334 40 51.334 42.7667 49.4673 46.7334C46.9174 46.8615 44.5138 47.9633 42.7524 49.8115C40.9909 51.6598 40.006 54.1135 40.0007 56.6667C40.0007 62.2 44.4673 66.6667 50.0007 66.6667L71.6673 66.6C73.8775 66.6 75.9971 65.7221 77.5599 64.1593C79.1227 62.5965 80.0007 60.4768 80.0007 58.2667C80.0007 56.0566 79.1227 53.937 77.5599 52.3741C75.9971 50.8113 73.8775 49.9334 71.6673 49.9334ZM33.334 14.2V21.1667C25.5673 23.9334 20.0007 31.3 20.0007 40C20.0007 45.9 22.6007 51.1334 26.6673 54.8V46.6667H33.334V66.6667H13.334V60H22.434C19.5733 57.5126 17.2804 54.4396 15.7104 50.989C14.1404 47.5385 13.33 43.791 13.334 40C13.334 27.5667 21.834 17.1667 33.334 14.2ZM66.6673 20H57.5673C62.4612 24.2847 65.6156 30.2139 66.434 36.6667H59.7007C58.934 32.1334 56.6007 28.1667 53.334 25.2V33.3334H46.6673V13.3334H66.6673V20Z" fill="url(#paint0_linear_2006_197)"></path></g><defs><linearGradient id="paint0_linear_2006_197" x1="46.5729" y1="13.3334" x2="46.5729" y2="89.5727" gradientUnits="userSpaceOnUse"><stop stop-color="#219BE3"></stop><stop offset="1" stop-color="#2477A8"></stop></linearGradient><clipPath id="clip0_2006_197"><rect width="80" height="80" fill="white"></rect></clipPath></defs></svg> 